<svg xmlns="http://www.w3.org/2000/svg" version="1.1" xmlns:xlink="http://www.w3.org/1999/xlink" xmlns:svgjs="http://svgjs.dev/svgjs" width="1000" height="1000" viewBox="0 0 1000 1000"><g transform="matrix(1,0,0,1,0,0)"><svg viewBox="0 0 280 280" data-background-color="#000000" preserveAspectRatio="xMidYMid meet" height="1000" width="1000" xmlns="http://www.w3.org/2000/svg" xmlns:xlink="http://www.w3.org/1999/xlink"><g id="tight-bounds" transform="matrix(1,0,0,1,0,0)"><svg viewBox="0 0 280 280" height="280" width="280"><g><svg viewBox="0 0 280 280" height="280" width="280"><g><svg viewBox="0 0 280 280" height="280" width="280"><g id="textblocktransform"><svg viewBox="0 0 280 280" height="280" width="280" id="textblock"><g><svg viewBox="0 0 280 280" height="280" width="280"><g transform="matrix(1,0,0,1,74.00336708925556,77.71388708639122)"><svg viewBox="0 0 131.99326582148888 124.57222582721754" height="124.57222582721754" width="131.99326582148888"><g><svg xmlns="http://www.w3.org/2000/svg" xmlns:xlink="http://www.w3.org/1999/xlink" version="1.1" x="0" y="0" viewBox="18.18738 20 67.81262 64" enable-background="new 0 0 100 100" xml:space="preserve" height="124.57222582721754" width="131.99326582148888" class="icon-kg-0" data-fill-palette-color="accent" id="kg-0"><g fill="#ffffff" data-fill-palette-color="accent"><path fill="#ffffff" d="M54 20c-17.673 0-32 14.327-32 32 0 12.052 6.665 22.542 16.507 28H18.187v4H54c17.673 0 32-14.327 32-32C86 34.327 71.673 20 54 20zM47.163 69.939c-2.929 2.929-7.678 2.929-10.606 0s-2.929-7.678 0-10.607c2.929-2.929 7.678-2.929 10.606 0C50.092 62.261 50.092 67.01 47.163 69.939zM47.163 44.668c-2.929 2.929-7.678 2.929-10.606 0s-2.929-7.678 0-10.607c2.929-2.929 7.678-2.929 10.606 0C50.092 36.99 50.092 41.739 47.163 44.668zM54 55.962c-2.209 0-4-1.774-4-3.962s1.791-3.962 4-3.962S58 49.812 58 52 56.209 55.962 54 55.962zM72.434 69.939c-2.929 2.929-7.678 2.929-10.607 0s-2.929-7.678 0-10.607c2.929-2.929 7.678-2.929 10.607 0C75.363 62.261 75.363 67.01 72.434 69.939zM72.434 44.668c-2.929 2.929-7.678 2.929-10.607 0s-2.929-7.678 0-10.607c2.929-2.929 7.678-2.929 10.607 0C75.363 36.99 75.363 41.739 72.434 44.668z" data-fill-palette-color="accent"></path></g></svg></g></svg></g><g><path d="M6.612 90.79v0c-0.697 1.929-0.956 3.731-0.777 5.405 0.181 1.668 0.655 3.169 1.421 4.505 0.767 1.336 1.758 2.481 2.973 3.435 1.219 0.963 2.506 1.689 3.861 2.178v0c1.536 0.555 3.149 0.799 4.839 0.732 1.684-0.069 3.284-0.426 4.802-1.071 1.511-0.647 2.868-1.551 4.071-2.711 1.201-1.154 2.097-2.553 2.691-4.195v0c0.169-0.468 0.316-1.04 0.44-1.715 0.126-0.681 0.152-1.388 0.078-2.121-0.074-0.733-0.287-1.462-0.639-2.189-0.355-0.735-0.925-1.407-1.707-2.015v0l0.142-0.393 4.336 1.567c-0.142 0.393-0.238 0.825-0.287 1.293-0.05 0.469-0.105 0.985-0.168 1.549v0c-0.059 0.748-0.158 1.559-0.297 2.434-0.142 0.881-0.377 1.777-0.707 2.688v0c-0.819 2.266-1.929 4.117-3.329 5.552-1.407 1.433-2.942 2.498-4.606 3.196-1.664 0.698-3.388 1.045-5.173 1.042-1.781 0.006-3.48-0.283-5.097-0.867v0c-1.617-0.584-3.115-1.45-4.493-2.597-1.387-1.143-2.499-2.53-3.336-4.16-0.837-1.629-1.329-3.473-1.475-5.53-0.142-2.049 0.22-4.272 1.087-6.669v0c0.311-0.862 0.67-1.611 1.076-2.248 0.404-0.63 0.784-1.192 1.138-1.685v0c0.271-0.34 0.501-0.663 0.689-0.969 0.18-0.302 0.326-0.609 0.439-0.921v0l4.336 1.567-0.142 0.393c-0.862-0.135-1.637-0.09-2.325 0.134-0.68 0.22-1.264 0.56-1.754 1.018-0.49 0.458-0.91 0.984-1.259 1.578-0.349 0.594-0.631 1.191-0.848 1.79z" fill="#ffffff" data-fill-palette-color="primary"></path><path d="M18.611 65.565l-0.348-0.231 3.282-4.956 0.349 0.231-0.116 0.174c-0.106 0.161-0.142 0.352-0.106 0.575 0.036 0.223 0.108 0.438 0.218 0.645 0.113 0.202 0.26 0.407 0.441 0.615 0.179 0.198 0.352 0.352 0.518 0.462v0l18.463 12.229c0.183 0.121 0.399 0.233 0.65 0.335 0.245 0.099 0.497 0.158 0.754 0.177 0.252 0.016 0.49 0.006 0.713-0.029 0.223-0.036 0.395-0.145 0.515-0.328v0l0.116-0.174 0.349 0.231-3.283 4.956-0.349-0.231 0.116-0.174c0.125-0.188 0.169-0.394 0.133-0.616-0.036-0.223-0.116-0.451-0.239-0.685-0.133-0.232-0.291-0.444-0.475-0.636-0.192-0.191-0.379-0.347-0.562-0.468v0l-18.463-12.229c-0.166-0.11-0.366-0.211-0.6-0.302-0.243-0.089-0.489-0.145-0.738-0.166-0.252-0.016-0.488 0.003-0.707 0.057-0.219 0.054-0.391 0.175-0.515 0.364v0z" fill="#ffffff" data-fill-palette-color="primary"></path><path d="M56.515 61.434v0l0.154-0.142 0.283 0.309-3.4 3.114-0.282-0.308 0.146-0.135c0.147-0.135 0.23-0.324 0.251-0.567 0.02-0.243-0.002-0.484-0.067-0.722-0.074-0.238-0.172-0.477-0.293-0.717-0.13-0.241-0.27-0.442-0.418-0.604v0l-14.958-16.33c-0.135-0.147-0.299-0.297-0.495-0.451-0.2-0.159-0.415-0.281-0.646-0.367-0.231-0.085-0.469-0.119-0.715-0.102-0.245 0.017-0.47 0.12-0.676 0.309v0l-0.154 0.141-0.283-0.308 3.099-2.839 27.172 7.344-14.313-15.625c-0.135-0.147-0.309-0.288-0.524-0.425-0.219-0.141-0.45-0.25-0.691-0.326-0.241-0.076-0.474-0.115-0.699-0.115-0.226 0-0.419 0.073-0.581 0.221v0l-0.154 0.141-0.283-0.308 3.43-3.141 0.282 0.308-0.154 0.141c-0.162 0.148-0.252 0.334-0.271 0.559-0.019 0.225-0.001 0.46 0.053 0.707 0.055 0.247 0.148 0.481 0.28 0.703 0.127 0.217 0.257 0.399 0.391 0.546v0l16.782 18.32-1.902 1.742-27.204-7.423 14.287 15.596c0.148 0.162 0.334 0.32 0.557 0.476 0.214 0.155 0.444 0.273 0.689 0.354 0.236 0.081 0.474 0.124 0.713 0.13 0.234 0.01 0.432-0.059 0.594-0.206z" fill="#ffffff" data-fill-palette-color="primary"></path><path d="M81.673 42.529l-0.184-0.375 0.188-0.092c0.197-0.097 0.336-0.25 0.417-0.46 0.082-0.21 0.131-0.441 0.148-0.694 0.017-0.252-0.001-0.506-0.053-0.762-0.046-0.259-0.117-0.486-0.213-0.683v0l-9.796-19.95c-0.088-0.179-0.219-0.362-0.392-0.551-0.171-0.197-0.361-0.366-0.571-0.507-0.21-0.141-0.423-0.244-0.639-0.308-0.216-0.064-0.423-0.048-0.619 0.049v0l-0.188 0.093-0.184-0.376 14.355-7.048 1.702 3.468-0.366 0.18c-0.335-0.546-0.808-0.938-1.421-1.177-0.607-0.242-1.333-0.155-2.18 0.26v0l-7.499 3.682 4.635 9.439 6.194-3.041c0.572-0.281 0.962-0.691 1.171-1.23 0.218-0.536 0.211-1.039-0.02-1.509v0l0.375-0.185 2.287 4.657-0.376 0.184c-0.219-0.447-0.593-0.741-1.12-0.881-0.533-0.137-1.098-0.06-1.694 0.233v0l-6.194 3.042 5.547 11.298 8.17-4.012c0.471-0.231 0.826-0.546 1.067-0.945 0.237-0.39 0.399-0.799 0.485-1.226 0.08-0.424 0.088-0.846 0.022-1.264-0.062-0.413-0.155-0.745-0.277-0.995v0l0.375-0.185 2.142 4.362z" fill="#ffffff" data-fill-palette-color="primary"></path><path d="M131.336 28.001l-0.064-0.414 0.207-0.031c0.19-0.029 0.355-0.139 0.493-0.328 0.139-0.189 0.254-0.402 0.346-0.638 0.084-0.241 0.136-0.494 0.155-0.759 0.012-0.271 0.002-0.514-0.032-0.73v0l-3.322-21.604-6.788 26.352-13.675-21.905 3.127 20.333c0.033 0.217 0.1 0.451 0.199 0.705 0.092 0.248 0.217 0.474 0.376 0.678 0.151 0.198 0.325 0.366 0.521 0.504 0.189 0.139 0.392 0.192 0.609 0.158v0l0.206-0.031 0.064 0.413-4.478 0.689-0.064-0.414 0.207-0.032c0.19-0.029 0.355-0.139 0.493-0.327 0.139-0.189 0.247-0.401 0.326-0.635 0.071-0.239 0.116-0.491 0.136-0.756 0.012-0.271 0.002-0.514-0.032-0.731v0l-3.366-21.888c-0.03-0.197-0.09-0.413-0.18-0.648-0.097-0.24-0.215-0.461-0.354-0.66-0.145-0.199-0.311-0.362-0.498-0.488-0.187-0.126-0.376-0.174-0.566-0.145v0l-0.207 0.032-0.063-0.413 4.192-0.645 12.981 20.994 6.073-23.924 4.636-0.713 0.063 0.413-0.206 0.032c-0.217 0.033-0.395 0.138-0.536 0.314-0.141 0.176-0.257 0.382-0.349 0.618-0.091 0.236-0.144 0.482-0.158 0.74-0.015 0.251-0.008 0.475 0.023 0.671v0l3.366 21.889c0.033 0.217 0.096 0.452 0.189 0.706 0.092 0.248 0.217 0.474 0.376 0.678 0.158 0.197 0.332 0.365 0.521 0.504 0.189 0.139 0.392 0.192 0.609 0.158v0l0.207-0.032 0.063 0.414z" fill="#ffffff" data-fill-palette-color="primary"></path><path d="M166.15 31.007l0.076-0.411 0.205 0.038c0.653 0.121 1.035-0.119 1.147-0.719v0c0.04-0.215 0.04-0.452-0.001-0.709v0l-1.83-10.609-7.147-1.326-5.374 9.101c-0.118 0.201-0.195 0.396-0.23 0.585v0c-0.067 0.359-0.024 0.657 0.127 0.895 0.152 0.237 0.339 0.377 0.561 0.418v0l0.206 0.038-0.077 0.411-4.543-0.843 0.077-0.411 0.205 0.038c0.359 0.067 0.747-0.078 1.164-0.432 0.418-0.361 0.788-0.809 1.11-1.344v0l13.981-23.181 4.579 26.37c0.088 0.583 0.253 1.164 0.497 1.743 0.244 0.579 0.64 0.919 1.188 1.021v0l0.196 0.036-0.077 0.411zM163.995 8.003l-4.736 7.953 6.295 1.167z" fill="#ffffff" data-fill-palette-color="primary"></path><path d="M195.523 12.126l0.18-0.378 5.32 2.54c2.774 1.324 4.626 2.86 5.558 4.607 0.929 1.753 0.928 3.603-0.002 5.55v0c-0.501 1.048-1.197 1.867-2.089 2.456-0.898 0.586-1.886 0.968-2.963 1.145-1.084 0.174-2.203 0.169-3.359-0.014-1.155-0.184-2.233-0.515-3.234-0.993v0l-1.419-0.678-4.566 9.561c-0.094 0.198-0.175 0.428-0.241 0.69-0.064 0.257-0.087 0.514-0.071 0.772 0.019 0.252 0.062 0.486 0.129 0.702 0.066 0.216 0.198 0.371 0.396 0.465v0l0.189 0.09-0.181 0.377-5.283-2.523 0.18-0.377 0.18 0.086c0.18 0.086 0.38 0.09 0.601 0.011 0.221-0.078 0.427-0.193 0.617-0.345 0.199-0.155 0.378-0.338 0.538-0.549 0.168-0.214 0.3-0.42 0.394-0.617v0l9.543-19.985c0.169-0.353 0.259-0.803 0.269-1.35 0.017-0.544-0.152-0.93-0.506-1.158v0zM199.498 15.171l-0.521-0.249-4.836 10.127 1.123 0.537c1 0.478 1.959 0.766 2.876 0.865 0.922 0.102 1.751 0.053 2.487-0.148 0.742-0.198 1.388-0.518 1.937-0.961 0.55-0.444 0.968-0.965 1.255-1.564v0c0.349-0.731 0.555-1.471 0.619-2.221 0.064-0.749-0.054-1.497-0.353-2.242-0.307-0.743-0.83-1.467-1.567-2.172-0.737-0.705-1.744-1.362-3.02-1.972z" fill="#ffffff" data-fill-palette-color="primary"></path><path d="M208.923 50.826l0.269-0.32 0.16 0.135c0.168 0.141 0.364 0.207 0.589 0.197 0.225-0.01 0.457-0.058 0.695-0.144 0.238-0.086 0.463-0.204 0.676-0.354 0.218-0.146 0.398-0.302 0.54-0.47v0l14.323-16.995c0.128-0.152 0.244-0.346 0.346-0.581 0.112-0.236 0.19-0.478 0.235-0.726 0.045-0.249 0.053-0.485 0.024-0.709-0.029-0.224-0.127-0.406-0.294-0.548v0l-0.16-0.134 0.27-0.32 4.576 3.857-0.27 0.319-0.16-0.134c-0.173-0.145-0.372-0.213-0.596-0.204-0.225 0.01-0.449 0.064-0.672 0.163-0.227 0.095-0.448 0.217-0.661 0.368-0.214 0.141-0.385 0.287-0.514 0.439v0l-15.023 17.825 6.96 5.865c0.401 0.338 0.833 0.537 1.294 0.597 0.457 0.055 0.907 0.026 1.35-0.087 0.438-0.117 0.844-0.3 1.218-0.549 0.375-0.249 0.677-0.51 0.908-0.785v0l0.32 0.27-3.376 4.005z" fill="#ffffff" data-fill-palette-color="primary"></path><path d="M230.009 71.258l0.341-0.242 0.121 0.17c0.127 0.179 0.301 0.291 0.521 0.338 0.221 0.047 0.457 0.058 0.709 0.034 0.252-0.024 0.499-0.082 0.743-0.174 0.248-0.087 0.461-0.193 0.64-0.32v0l18.116-12.876c0.162-0.115 0.322-0.274 0.48-0.476 0.167-0.2 0.303-0.415 0.409-0.645 0.105-0.23 0.172-0.456 0.201-0.68 0.028-0.224-0.021-0.425-0.148-0.603v0l-0.121-0.171 0.341-0.242 9.264 13.035-3.149 2.238-0.236-0.333c0.485-0.418 0.796-0.948 0.933-1.591 0.141-0.638-0.061-1.341-0.608-2.11v0l-4.84-6.81-8.571 6.092 3.998 5.625c0.369 0.519 0.836 0.839 1.402 0.958 0.564 0.129 1.059 0.041 1.487-0.262v0l0.242 0.34-4.228 3.006-0.243-0.341c0.406-0.288 0.636-0.704 0.69-1.247 0.05-0.549-0.117-1.093-0.502-1.635v0l-3.998-5.625-10.259 7.292 5.272 7.419c0.304 0.427 0.672 0.728 1.105 0.9 0.423 0.172 0.853 0.266 1.288 0.282 0.431 0.011 0.849-0.049 1.251-0.181 0.398-0.128 0.71-0.273 0.938-0.434v0l0.242 0.341-3.961 2.815z" fill="#ffffff" data-fill-palette-color="primary"></path><path d="M248.309 97.263l12.636 1.712 8.194-9.114c0.167-0.202 0.353-0.438 0.559-0.71 0.214-0.268 0.407-0.535 0.578-0.802 0.166-0.265 0.286-0.537 0.361-0.819 0.077-0.275 0.073-0.531-0.013-0.768v0l0.393-0.142 2.007 5.553-0.393 0.142c-0.056-0.156-0.223-0.294-0.499-0.412-0.278-0.125-0.573-0.132-0.885-0.019v0c-0.187 0.068-0.352 0.187-0.495 0.359v0l-6.606 7.385 9.262 1.195c0.081-0.029 0.174-0.017 0.279 0.037v0c0.149 0.003 0.308 0.012 0.476 0.029 0.166 0.011 0.315-0.008 0.446-0.056v0c0.418-0.151 0.635-0.392 0.649-0.722 0.009-0.328-0.001-0.529-0.027-0.604v0l0.393-0.142 1.567 4.336-0.393 0.142c-0.16-0.443-0.554-0.781-1.182-1.013-0.625-0.226-1.215-0.373-1.768-0.44v0l-10.826-1.477-9.287 10.25c-0.19 0.217-0.383 0.463-0.579 0.739-0.191 0.274-0.366 0.559-0.527 0.857-0.157 0.29-0.266 0.573-0.328 0.85-0.065 0.27-0.054 0.524 0.031 0.761v0l-0.393 0.142-2.007-5.553 0.393-0.142c0.056 0.156 0.216 0.275 0.478 0.356 0.262 0.082 0.537 0.071 0.825-0.033v0c0.187-0.068 0.396-0.231 0.627-0.491v0l7.505-8.325-11.063-1.518c-0.192-0.022-0.402-0.028-0.63-0.015-0.231 0.006-0.44 0.043-0.627 0.11v0c-0.412 0.149-0.547 0.42-0.405 0.813v0l-0.393 0.142-1.54-4.261 0.393-0.142c0.065 0.181 0.2 0.369 0.405 0.563 0.196 0.19 0.427 0.371 0.694 0.544 0.271 0.163 0.56 0.309 0.867 0.438 0.312 0.12 0.594 0.209 0.848 0.265z" fill="#ffffff" data-fill-palette-color="primary"></path><path d="M39.784 187.087v0c-0.697-1.929-1.646-3.481-2.848-4.657-1.207-1.173-2.536-2.027-3.986-2.562-1.446-0.543-2.944-0.792-4.495-0.747-1.544 0.043-2.997 0.31-4.358 0.802v0c-1.536 0.555-2.932 1.399-4.189 2.531-1.257 1.132-2.261 2.434-3.014 3.906-0.755 1.466-1.224 3.029-1.407 4.69-0.179 1.653 0.028 3.3 0.622 4.943v0c0.171 0.474 0.422 1.012 0.752 1.613 0.336 0.598 0.768 1.159 1.296 1.681 0.525 0.516 1.16 0.943 1.903 1.281 0.741 0.332 1.607 0.482 2.597 0.448v0l0.143 0.394-4.346 1.57c-0.142-0.393-0.344-0.786-0.606-1.178-0.256-0.395-0.543-0.827-0.861-1.299v0c-0.433-0.613-0.876-1.3-1.327-2.061-0.454-0.768-0.846-1.607-1.175-2.519v0c-0.821-2.273-1.15-4.413-0.986-6.42 0.16-1.999 0.66-3.8 1.499-5.402 0.833-1.6 1.936-2.973 3.308-4.117 1.372-1.145 2.866-2.01 4.483-2.595v0c1.617-0.584 3.325-0.877 5.125-0.878 1.8-0.001 3.542 0.357 5.228 1.075 1.692 0.716 3.248 1.819 4.669 3.31 1.427 1.489 2.576 3.435 3.444 5.839v0c0.311 0.862 0.513 1.664 0.606 2.407 0.094 0.749 0.163 1.427 0.205 2.033v0c0.011 0.441 0.041 0.836 0.089 1.185 0.055 0.347 0.139 0.677 0.252 0.989v0l-4.345 1.571-0.142-0.394c0.755-0.449 1.323-0.979 1.702-1.589 0.388-0.606 0.624-1.242 0.708-1.908 0.084-0.666 0.069-1.341-0.045-2.027-0.118-0.677-0.285-1.316-0.501-1.915z" fill="#ffffff" data-fill-palette-color="primary"></path><path d="M49.12 204.085l0.349-0.231 3.282 4.956-0.348 0.231-0.116-0.175c-0.106-0.161-0.269-0.268-0.488-0.321-0.219-0.054-0.445-0.071-0.679-0.052-0.23 0.025-0.476 0.081-0.738 0.166-0.258 0.091-0.467 0.19-0.628 0.297v0l-18.488 12.245c-0.188 0.125-0.378 0.282-0.57 0.474-0.187 0.187-0.339 0.396-0.457 0.625-0.113 0.226-0.197 0.449-0.251 0.668-0.054 0.219-0.021 0.42 0.1 0.602v0l0.116 0.174-0.349 0.231-3.283-4.956 0.349-0.231 0.116 0.175c0.121 0.183 0.291 0.301 0.509 0.355 0.219 0.054 0.46 0.069 0.724 0.046 0.269-0.027 0.526-0.09 0.771-0.188 0.254-0.097 0.476-0.208 0.664-0.332v0l18.488-12.246c0.161-0.106 0.329-0.254 0.507-0.443 0.175-0.18 0.322-0.385 0.44-0.615 0.113-0.226 0.187-0.451 0.223-0.673 0.036-0.223-0.007-0.425-0.128-0.608v0z" fill="#ffffff" data-fill-palette-color="primary"></path><path d="M45.278 240.663v0l0.155 0.142-0.283 0.308-3.407-3.121 0.283-0.308 0.154 0.141c0.142 0.13 0.335 0.194 0.579 0.193 0.244-0.001 0.482-0.045 0.713-0.13 0.236-0.09 0.465-0.208 0.69-0.354 0.233-0.146 0.426-0.303 0.578-0.47v0l14.98-16.352c0.13-0.142 0.263-0.322 0.399-0.539 0.137-0.208 0.239-0.433 0.308-0.676 0.07-0.233 0.083-0.473 0.039-0.72-0.039-0.243-0.161-0.458-0.366-0.647v0l-0.147-0.134 0.282-0.309 3.099 2.839-4.944 27.745 14.333-15.647c0.13-0.142 0.256-0.328 0.377-0.559 0.117-0.226 0.205-0.465 0.265-0.716 0.055-0.247 0.073-0.482 0.054-0.707-0.019-0.225-0.112-0.413-0.279-0.566v0l-0.147-0.135 0.283-0.308 3.436 3.148-0.282 0.308-0.155-0.141c-0.166-0.152-0.362-0.228-0.587-0.228-0.226 0-0.459 0.039-0.7 0.115-0.245 0.081-0.471 0.194-0.676 0.34-0.21 0.15-0.379 0.296-0.509 0.438v0l-16.809 18.349-1.902-1.742 5.027-27.791-14.307 15.617c-0.152 0.166-0.299 0.365-0.439 0.597-0.131 0.231-0.228 0.47-0.293 0.718-0.055 0.247-0.077 0.487-0.067 0.722 0.01 0.234 0.099 0.428 0.265 0.58z" fill="#ffffff" data-fill-palette-color="primary"></path><path d="M73.962 262.982l0.185-0.376 0.187 0.092c0.197 0.097 0.403 0.113 0.62 0.049 0.222-0.061 0.435-0.163 0.639-0.307 0.213-0.147 0.406-0.315 0.579-0.503 0.171-0.197 0.304-0.394 0.401-0.591v0l9.815-19.985c0.085-0.173 0.153-0.387 0.204-0.643 0.043-0.253 0.057-0.508 0.044-0.766-0.011-0.249-0.06-0.481-0.148-0.694-0.082-0.21-0.221-0.364-0.417-0.46v0l-0.188-0.092 0.184-0.376 14.382 7.062-1.707 3.477-0.376-0.184c0.236-0.601 0.261-1.218 0.076-1.849-0.186-0.631-0.702-1.154-1.548-1.57v0l-7.508-3.687-4.639 9.448 6.203 3.046c0.572 0.281 1.137 0.344 1.694 0.188 0.554-0.164 0.947-0.482 1.177-0.952v0l0.376 0.184-2.291 4.666-0.376-0.184c0.219-0.447 0.223-0.922 0.012-1.426-0.217-0.506-0.624-0.905-1.22-1.198v0l-6.203-3.046-5.556 11.316 8.178 4.016c0.477 0.234 0.943 0.323 1.4 0.266 0.46-0.048 0.883-0.173 1.271-0.374 0.391-0.193 0.732-0.443 1.024-0.751 0.289-0.302 0.495-0.578 0.617-0.829v0l0.367 0.18-2.147 4.371z" fill="#ffffff" data-fill-palette-color="primary"></path><path d="M128.69 279.101l0.064-0.413 0.207 0.032c0.19 0.029 0.38-0.026 0.569-0.165 0.196-0.138 0.369-0.306 0.521-0.504 0.159-0.204 0.288-0.429 0.386-0.676 0.093-0.254 0.156-0.493 0.191-0.716v0l3.326-21.633-14.417 23.131-6.468-25.032-3.129 20.353c-0.034 0.223-0.045 0.47-0.034 0.74 0.02 0.265 0.071 0.518 0.156 0.76 0.091 0.236 0.206 0.448 0.345 0.637 0.139 0.189 0.32 0.301 0.543 0.335v0l0.206 0.032-0.063 0.413-4.488-0.69 0.063-0.413 0.207 0.032c0.19 0.029 0.38-0.026 0.569-0.164 0.196-0.138 0.363-0.307 0.502-0.508 0.146-0.206 0.265-0.433 0.356-0.68 0.099-0.253 0.166-0.492 0.201-0.715v0l3.37-21.918c0.029-0.19 0.034-0.415 0.012-0.673-0.015-0.251-0.061-0.496-0.138-0.737-0.072-0.233-0.181-0.438-0.329-0.615-0.141-0.176-0.306-0.279-0.496-0.308v0l-0.207-0.032 0.063-0.413 4.193 0.645 6.088 23.966 12.996-21.032 4.655 0.716-0.063 0.413-0.207-0.032c-0.223-0.034-0.428 0.011-0.616 0.137-0.187 0.126-0.36 0.287-0.517 0.485-0.152 0.205-0.277 0.424-0.374 0.658-0.091 0.241-0.151 0.457-0.18 0.647v0l-3.37 21.918c-0.034 0.223-0.045 0.47-0.033 0.741 0.02 0.265 0.071 0.518 0.155 0.759 0.091 0.236 0.206 0.448 0.346 0.637 0.139 0.189 0.32 0.301 0.542 0.336v0l0.207 0.032-0.063 0.413z" fill="#ffffff" data-fill-palette-color="primary"></path><path d="M169.344 276.003l-0.076-0.411 0.205-0.038c0.659-0.122 0.933-0.484 0.822-1.084v0c-0.04-0.215-0.125-0.439-0.256-0.672v0l-5.525-9.254-7.157 1.327-1.749 10.442c-0.038 0.23-0.04 0.44-0.005 0.629v0c0.067 0.359 0.213 0.622 0.44 0.789 0.227 0.167 0.448 0.231 0.663 0.191v0l0.206-0.038 0.076 0.411-4.533 0.841-0.076-0.411 0.196-0.036c0.359-0.067 0.669-0.344 0.929-0.831 0.262-0.481 0.451-1.029 0.566-1.644v0l4.741-26.695 13.748 23.012c0.29 0.507 0.653 0.99 1.089 1.449 0.435 0.453 0.927 0.628 1.475 0.526v0l0.205-0.038 0.076 0.411zM159.066 255.265l-1.565 9.142 6.305-1.17z" fill="#ffffff" data-fill-palette-color="primary"></path><path d="M179.749 244.705l-0.18-0.377 5.328-2.545c2.78-1.327 5.143-1.801 7.09-1.421 1.95 0.371 3.391 1.533 4.324 3.485v0c0.503 1.054 0.701 2.115 0.592 3.182-0.105 1.058-0.431 2.063-0.976 3.016-0.546 0.952-1.252 1.823-2.119 2.611-0.875 0.786-1.813 1.418-2.813 1.896v0l-1.429 0.682 4.57 9.57c0.097 0.204 0.23 0.412 0.398 0.626 0.159 0.211 0.345 0.391 0.556 0.54 0.208 0.143 0.417 0.257 0.627 0.341 0.209 0.084 0.413 0.079 0.61-0.015v0l0.189-0.091 0.18 0.378-5.293 2.527-0.18-0.377 0.189-0.09c0.174-0.083 0.3-0.235 0.378-0.457 0.078-0.221 0.121-0.455 0.128-0.701 0.005-0.252-0.025-0.507-0.088-0.763-0.067-0.263-0.148-0.496-0.246-0.699v0l-9.556-20.012c-0.166-0.347-0.456-0.702-0.872-1.062-0.418-0.352-0.824-0.463-1.218-0.334v0zM184.625 243.524l-0.53 0.253 4.845 10.145 1.132-0.54c1-0.478 1.83-1.043 2.489-1.697 0.653-0.65 1.135-1.329 1.444-2.036 0.313-0.701 0.469-1.405 0.471-2.111 0.001-0.707-0.142-1.36-0.428-1.959v0c-0.349-0.731-0.795-1.357-1.338-1.877-0.546-0.527-1.204-0.904-1.975-1.131-0.768-0.237-1.661-0.288-2.678-0.156-1.012 0.13-2.156 0.5-3.432 1.109z" fill="#ffffff" data-fill-palette-color="primary"></path><path d="M220.163 252.381l-0.269-0.32 0.16-0.135c0.168-0.141 0.266-0.324 0.294-0.547 0.034-0.228 0.025-0.464-0.025-0.709-0.049-0.254-0.125-0.498-0.227-0.733-0.112-0.236-0.238-0.437-0.379-0.605v0l-14.348-17.026c-0.124-0.147-0.293-0.296-0.506-0.446-0.214-0.141-0.442-0.257-0.684-0.348-0.233-0.091-0.464-0.139-0.695-0.144-0.225-0.01-0.422 0.056-0.589 0.197v0l-0.16 0.135-0.269-0.32 4.584-3.863 0.269 0.32-0.16 0.135c-0.173 0.145-0.273 0.33-0.302 0.554-0.029 0.224-0.013 0.454 0.048 0.689 0.059 0.245 0.14 0.485 0.242 0.72 0.112 0.236 0.23 0.427 0.354 0.575v0l15.041 17.848 6.967-5.871c0.406-0.342 0.677-0.731 0.813-1.168 0.137-0.445 0.185-0.893 0.143-1.344-0.041-0.46-0.15-0.894-0.327-1.3-0.182-0.411-0.39-0.756-0.625-1.036v0l0.312-0.263 3.382 4.013z" fill="#ffffff" data-fill-palette-color="primary"></path><path d="M244.228 228.722l-0.341-0.242 0.121-0.171c0.127-0.179 0.176-0.38 0.148-0.603-0.024-0.229-0.091-0.456-0.2-0.681-0.111-0.234-0.245-0.451-0.403-0.653-0.167-0.2-0.34-0.364-0.519-0.49v0l-18.147-12.902c-0.157-0.112-0.357-0.213-0.601-0.305-0.242-0.083-0.492-0.138-0.75-0.166-0.248-0.03-0.484-0.018-0.708 0.034-0.221 0.047-0.394 0.159-0.521 0.338v0l-0.121 0.17-0.341-0.242 9.283-13.058 3.157 2.244-0.242 0.341c-0.556-0.33-1.16-0.454-1.813-0.372-0.653 0.082-1.252 0.507-1.798 1.275v0l-4.846 6.817 8.578 6.099 4.004-5.633c0.369-0.519 0.522-1.067 0.458-1.641-0.073-0.573-0.323-1.012-0.75-1.316v0l0.242-0.34 4.236 3.011-0.242 0.341c-0.406-0.288-0.874-0.369-1.405-0.241-0.534 0.133-0.994 0.47-1.378 1.011v0l-4.004 5.633 10.274 7.304 5.279-7.426c0.308-0.433 0.47-0.879 0.488-1.339 0.027-0.462-0.028-0.9-0.165-1.315-0.127-0.416-0.32-0.793-0.576-1.13-0.252-0.334-0.491-0.581-0.719-0.743v0l0.237-0.333 3.969 2.822z" fill="#ffffff" data-fill-palette-color="primary"></path><path d="M260.104 196.876l-8.626-9.409-12.147 1.76c-0.253 0.057-0.548 0.12-0.883 0.188-0.336 0.069-0.653 0.156-0.952 0.26-0.303 0.095-0.572 0.224-0.807 0.386-0.237 0.168-0.398 0.368-0.481 0.599v0l-0.393-0.142 2.008-5.553 0.393 0.142c-0.056 0.156-0.017 0.368 0.12 0.636 0.14 0.277 0.366 0.471 0.678 0.584v0c0.181 0.065 0.381 0.078 0.6 0.037v0l9.821-1.447-6.37-6.867c-0.075-0.027-0.139-0.093-0.193-0.197v0c-0.113-0.097-0.229-0.206-0.348-0.326-0.121-0.114-0.247-0.195-0.378-0.243v0c-0.418-0.151-0.736-0.104-0.952 0.143-0.222 0.244-0.347 0.404-0.374 0.479v0l-0.393-0.143 1.571-4.345 0.393 0.143c-0.16 0.443-0.073 0.955 0.261 1.534 0.334 0.58 0.696 1.071 1.087 1.473v0l7.385 8.071 13.716-1.944c0.278-0.048 0.581-0.114 0.909-0.201 0.328-0.086 0.647-0.189 0.959-0.31 0.308-0.129 0.573-0.276 0.796-0.443 0.225-0.173 0.38-0.378 0.466-0.615v0l0.393 0.142-2.011 5.563-0.394-0.143c0.056-0.156 0.01-0.349-0.139-0.579-0.156-0.233-0.377-0.401-0.665-0.505v0c-0.181-0.065-0.443-0.072-0.787-0.02v0l-11.103 1.597 7.538 8.263c0.129 0.131 0.287 0.27 0.474 0.415 0.183 0.137 0.366 0.238 0.547 0.304v0c0.418 0.151 0.697 0.033 0.837-0.354v0l0.394 0.142-1.541 4.261-0.393-0.142c0.065-0.181 0.082-0.412 0.049-0.692-0.029-0.272-0.094-0.56-0.196-0.865-0.095-0.303-0.224-0.6-0.387-0.891-0.154-0.296-0.315-0.544-0.482-0.746z" fill="#ffffff" data-fill-palette-color="primary"></path><path d="M2.809 144.921c0-5.891 4.775-10.666 10.666-10.666 5.891 0 10.666 4.775 10.666 10.666 0 5.891-4.775 10.666-10.666 10.666-5.891 0-10.666-4.775-10.666-10.666z" fill="#ffffff" data-fill-palette-color="primary"></path><path d="M253.747 144.921c0-5.891 4.775-10.666 10.666-10.666 5.891 0 10.666 4.775 10.666 10.666 0 5.891-4.775 10.666-10.666 10.666-5.891 0-10.666-4.775-10.666-10.666z" fill="#ffffff" data-fill-palette-color="primary"></path></g></svg></g></svg></g></svg></g></svg></g><defs></defs></svg><rect width="280" height="280" fill="none" stroke="none" visibility="hidden"></rect></g></svg></g></svg>